<?xml version="1.0" encoding="utf-8"?>
<!-- Generator: Adobe Illustrator 16.0.0, SVG Export Plug-In . SVG Version: 6.00 Build 0)  -->
<!DOCTYPE svg PUBLIC "-//W3C//DTD SVG 1.0//EN" "http://www.w3.org/TR/2001/REC-SVG-20010904/DTD/svg10.dtd">
<svg version="1.0" id="圖層_1" xmlns="http://www.w3.org/2000/svg" xmlns:xlink="http://www.w3.org/1999/xlink" x="0px" y="0px"
	 width="2280px" height="1284px" viewBox="0 0 2280 1284" enable-background="new 0 0 2280 1284" xml:space="preserve">
	 <mask id="whale-mask" maskUnits="objectBoundingBox">
<polygon fill-rule="evenodd" clip-rule="evenodd" points="539,1285 595.859,1248.558 618.143,1240.23 644.409,1239.442 
	669.749,1235.033 689.628,1229.84 710.103,1226.892 740.373,1218.899 775.318,1191.748 779.451,1178.398 784.528,1162.547 
	782.25,1155.388 780.096,1151.132 777.816,1113.428 777.718,1061.082 779.082,1000.094 786.82,951.411 796.07,887.328 
	806.362,849.952 825.322,786.119 854.901,718.195 859.691,706.869 873.871,672.088 886.786,634.514 910.453,585.476 
	916.297,573.484 921.473,565.589 928.207,555.811 941.331,543.067 956.132,528.412 973.86,503.041 992.53,478.116 1000.703,461.806 
	1005.785,455.531 1008.753,451.776 1016.983,440.711 1033.153,423.938 1048.01,412.891 1051.566,411.346 1061.992,393.756 
	1064.545,390.711 1075.776,380.254 1084.774,370.005 1086.994,366.965 1105.85,351.781 1125.803,340.566 1160.952,317.971 
	1184.069,301.392 1193.734,296.58 1200.715,291.851 1228.556,274.96 1234.845,270.806 1247.332,264.066 1266.048,262.879 
	1270.76,260.071 1277.897,254.832 1281.792,251.742 1279.219,248.125 1265.735,244.224 1238.582,245.904 1231.964,244.822 
	1209.711,238.984 1195.969,237.993 1170.173,233.86 1153.238,233.819 1151.456,233.165 1137.974,227.537 1126.427,223.147 
	1124.69,223.15 1105.521,221.007 1084.981,212.292 1072.067,201.656 1068.531,200.03 1063.222,198.276 1062.397,197.828 
	1046.561,195.752 1032.207,183.838 1020.552,173.192 1019.6,173.316 1004.656,167.244 995.977,165.821 992.633,166.892 
	978.53,161.345 966.097,151.945 963.036,151.758 944.239,148.692 932.989,144.756 918.813,144.759 909.191,138.958 895.014,133.223 
	875.562,133.707 871.64,131.854 858.494,128.511 849.081,128.866 845.44,126.755 835.786,123.208 825.86,125.791 817.602,124.007 
	807.199,124.462 800.183,121.746 795.258,121.997 785.222,124.853 780.359,126.005 788.765,108.94 799.005,97.825 814.367,87.287 
	826.858,84.88 833.127,79.676 836.489,76.947 841.631,74.061 850.812,72.171 864.878,66.857 884.007,64.902 901.734,65.94 
	915.521,59.274 924.574,61.49 933.806,69.694 950.484,74.181 958.204,72.944 964.896,70.489 988.765,76.581 990.991,78.902 
	1006.454,82.042 1020.618,85.652 1039.404,86.277 1045.848,86.144 1062.626,79.716 1085.211,78.803 1092.814,79.601 1098.56,81.366 
	1109.366,84.346 1125.107,80.081 1132.06,85.623 1132.061,86.62 1147.5,97.955 1169.029,102.177 1188.644,108.729 1198.93,108.11 
	1223.669,111.625 1229.588,111.885 1248.468,116.656 1259.82,120.955 1276.129,125.58 1283.55,125.063 1285.051,135.946 
	1291.547,138.166 1319.997,147.5 1344.35,155.315 1358.33,163.536 1380.888,171.463 1408.891,184.41 1425.955,191.769 
	1439.617,196.057 1446.719,196.002 1470.834,194.94 1497.911,192.356 1520.84,192.371 1532.734,193.035 1543.465,194.375 
	1559.045,184.333 1560.207,181.998 1562.195,177.336 1558.002,175.028 1555.912,174.697 1554.846,164.005 1555.821,154.805 
	1550.902,144.22 1553.479,138.988 1549.775,125.427 1549.921,118.068 1550.6,113.01 1545.374,105.08 1548.396,93.766 
	1549.214,90.065 1543.662,81.483 1538.947,76.859 1538.583,72.146 1539.651,57.076 1536.112,50.646 1534.95,43.447 1556.656,48.326 
	1556.657,54.887 1574.601,71.879 1578.382,74.921 1584.127,83.291 1587.949,86.416 1595.024,89.042 1604.341,97.043 
	1607.717,100.385 1615.037,119.585 1615.879,121.3 1619.33,142.483 1620.342,145.497 1634.16,160.668 1634.359,170.485 
	1636.117,177.149 1638.942,181.441 1650.673,187.957 1654.405,187.491 1677.291,187.056 1714.003,187.357 1756.611,193.089 
	1778.217,195.957 1798.112,197.046 1814.268,198.938 1833.979,200.936 1892.05,204.036 1909.253,205.776 1920.541,204.791 
	1934.465,204.063 1950.485,201.753 1983.159,196.982 1985.108,197.089 2008.409,202.82 2024.684,213.876 2031.852,215.327 
	2042.353,218.631 2048.685,227.699 2050.247,232.228 2051.956,238.55 2052.606,240.391 2052.406,262.406 2054.018,268.594 
	2054.548,279.598 2048.811,293.943 2041.302,304.202 2035.903,312.765 2030.849,318.589 2015.842,343.264 2011.297,347.896 
	1995.936,359.622 1989.476,374.244 1979.039,382.863 1957.465,388.76 1937.059,400.946 1934.953,403.941 1922.621,414.032 
	1921.668,414.191 1907.494,424.186 1896.326,427.235 1893.068,427.641 1883.415,437.277 1876.193,441.385 1859.856,449.284 
	1857.029,453.489 1847.036,461.143 1839.405,465.466 1823.241,473.841 1818.712,477.797 1810.617,486.324 1807.283,489.429 
	1801.408,496.52 1787.756,509.819 1780.052,516.355 1765.538,524.238 1763.43,526.309 1744.545,533.692 1738.885,536.127 
	1735.181,539.738 1722.137,551.763 1714.239,555.998 1711.069,557.793 1703.252,563.204 1676.94,570.337 1667.319,577.055 
	1659.215,579.89 1643.594,587.261 1636.059,590.823 1623.36,593.759 1599.817,605.606 1590.915,607.671 1573.493,618.496 
	1565.112,616.111 1556.897,618.046 1554.44,618.083 1541.111,627.231 1529.22,634.885 1521.417,631.575 1513.791,632.129 
	1504.764,635.963 1489.123,640.612 1476.122,646.959 1462.482,653.892 1459.843,654.931 1433.592,662.105 1428.002,667.739 
	1425.624,670.714 1424.221,676.007 1422.609,679.819 1416.432,680.936 1407.112,684.21 1399.53,684.391 1392.651,684.499 
	1375.261,695.188 1333.699,714.502 1313.83,728.979 1296.687,739.1 1290.362,743.248 1273.376,752.156 1269.113,755.352 
	1264.723,763.604 1257.783,760.023 1251.166,763.445 1249.087,771.184 1246.844,771.924 1233.581,774.157 1228.949,774.265 
	1217.029,784.737 1208.255,792.608 1203.882,796.775 1199.961,801.343 1198.38,809.57 1184.968,814.738 1182.301,808.103 
	1177.104,810.454 1169.06,816.197 1162.425,825.289 1157.74,828.608 1150.509,839.712 1123.276,859.039 1120.134,863.515 
	1108.646,875.095 1104.188,877.517 1086.892,899.391 1081.416,903.537 1073.225,917.914 1068.073,923.675 1058.743,930.46 
	1054.529,933.58 1042.855,943.093 1033.479,953.226 1019.002,973.318 1010.676,984.042 1007.084,989.953 1000.053,999.929 
	998.736,1002.021 984.025,1036.352 980.2,1041.476 965.502,1064.899 953.379,1095.984 952.009,1105.754 946.521,1111.841 
	943.373,1113.866 932.434,1121.135 920.71,1150.584 915.631,1172.539 917.491,1191.524 925.619,1236.142 924.841,1242.351 
	928.279,1253.767 957,1285 539,1285 "/>
	</mask>
</svg>
